<svg width="48" height="48" viewBox="0 0 48 48" fill="none" xmlns="http://www.w3.org/2000/svg">
<g clip-path="">
<path d="M42.0899 8.08654C42.031 8.02539 41.9711 7.96429 41.9099 7.90136C40.593 6.55407 39.2956 5.28247 37.708 4.25409C37.5981 4.18121 37.5981 4.18121 37.4857 4.10687C35.8387 3.02594 34.0825 2.20007 32.2137 1.57C32.1348 1.54333 32.0561 1.51666 31.9741 1.48925C26.6197 -0.285466 26.6197 -0.285466 24.9726 0.510311C24.5881 0.802791 24.3352 1.07574 24.1882 1.53888C24.1289 2.20398 24.1289 2.20398 24.286 2.52465C24.4218 2.67504 24.5621 2.82153 24.7043 2.96582C24.7694 3.03222 24.7694 3.03222 24.8361 3.09997C24.982 3.24853 25.1281 3.39666 25.2751 3.54473C25.3797 3.65106 25.4843 3.75744 25.5891 3.86389C25.8149 4.09332 26.0404 4.32251 26.2667 4.55157C26.6253 4.91473 26.9831 5.27838 27.3414 5.64221C28.1022 6.41565 28.8646 7.18866 29.6262 7.9616C30.4455 8.7929 31.2646 9.62439 32.0833 10.4564C32.4382 10.8168 32.7932 11.177 33.1486 11.537C33.371 11.7628 33.5939 11.9889 33.8162 12.215C33.9183 12.3186 34.0207 12.4221 34.1229 12.5254C37.4344 15.875 39.4599 19.7944 39.4263 24.6508C39.3398 28.4108 37.7768 32.2216 35.1643 34.9676C34.755 35.4006 34.4002 35.8183 34.3441 36.4228C34.3891 36.972 34.4913 37.1634 34.8709 37.5495C34.9395 37.6199 34.9395 37.6199 35.0096 37.6918C35.1614 37.847 35.3143 38.0012 35.4671 38.1552C35.5731 38.2628 35.679 38.3703 35.7853 38.478C36.0079 38.7034 36.2313 38.9282 36.4545 39.1528C36.7405 39.4402 37.0242 39.7294 37.3076 40.019C37.5266 40.2418 37.7462 40.4634 37.9665 40.6846C38.0717 40.7907 38.1762 40.8972 38.2805 41.0041C38.4269 41.154 38.575 41.302 38.7232 41.4496C38.8073 41.5341 38.8908 41.6187 38.9774 41.7058C39.3581 41.9914 39.7116 42.0553 40.1849 41.99C40.4752 41.8741 40.6354 41.7427 40.8586 41.5228C40.9365 41.4458 41.0147 41.369 41.0948 41.2898C41.1768 41.2057 41.2593 41.1217 41.3439 41.0351C41.4304 40.9475 41.5159 40.8599 41.6047 40.7698C45.4548 36.7932 47.8482 31.1067 48.0612 25.618C48.0753 25.4548 48.0892 25.2916 48.1042 25.1284C48.19 24.0095 48.159 22.9149 48.035 21.805C48.0205 21.6552 48.0057 21.5054 47.9907 21.3555C47.4837 16.5108 45.4901 11.568 42.0899 8.08654Z" fill="#FAFAFA"/>
<path d="M13.2695 10.8168C13.2241 10.7698 13.1779 10.7228 13.1307 10.6744C12.9789 10.5193 12.8263 10.3651 12.6732 10.211C12.5669 10.1036 12.4611 9.99602 12.3551 9.88842C12.1326 9.66295 11.9094 9.43804 11.6858 9.21355C11.4002 8.9262 11.1163 8.63707 10.8324 8.34734C10.6143 8.12456 10.394 7.903 10.174 7.68181C10.069 7.57573 9.96436 7.46917 9.86023 7.36223C9.71326 7.21251 9.56543 7.0645 9.41675 6.91692C9.3335 6.83226 9.24988 6.74779 9.16346 6.66063C8.78296 6.37517 8.42871 6.31127 7.95533 6.37633C7.66492 6.49266 7.5033 6.62535 7.27979 6.84618C7.20118 6.92345 7.12305 7.00066 7.04236 7.08025C6.95972 7.16454 6.8772 7.24889 6.79224 7.33562C6.66309 7.46666 6.66309 7.46666 6.53125 7.60039C4.21253 10.0077 2.51746 12.9771 1.41346 16.1112C1.38514 16.1912 1.35706 16.2712 1.32801 16.3538C0.718143 18.1124 0.348026 19.9018 0.156132 21.7441C0.144413 21.8508 0.144413 21.8508 0.132938 21.9596C-0.0247765 23.4661 -0.0528527 24.9253 0.106083 26.4275C0.117069 26.5647 0.128055 26.7019 0.138676 26.8391C0.537723 31.7707 2.6764 36.8226 6.10743 40.3376C6.16541 40.3971 6.22303 40.4567 6.28272 40.518C7.58228 41.8483 8.86621 43.0934 10.431 44.1117C10.5038 44.16 10.5763 44.2083 10.651 44.2581C14.0828 46.5308 18.5721 48.1173 22.766 47.9931C23.2434 47.8841 23.545 47.5616 23.8386 47.1788C23.9908 46.7013 24.0723 46.2887 23.8533 45.8407C23.7174 45.6903 23.5774 45.5438 23.4351 45.3995C23.3912 45.3552 23.3479 45.311 23.3033 45.2654C23.157 45.1167 23.0107 44.9687 22.8644 44.8206C22.7598 44.7142 22.6552 44.6078 22.5498 44.5015C22.3247 44.2721 22.0984 44.0428 21.8728 43.8138C21.5139 43.4507 21.1556 43.087 20.7983 42.7233C20.0369 41.9498 19.2752 41.1769 18.5134 40.404C17.6936 39.5727 16.8744 38.7413 16.0558 37.9093C15.7012 37.5489 15.3461 37.1886 14.991 36.8288C14.7679 36.603 14.5459 36.3769 14.3232 36.1508C14.2211 36.0472 14.119 35.9437 14.0167 35.8404C11.2858 33.0781 9.21656 29.8708 8.8285 25.8655C8.82154 25.7966 8.81446 25.7274 8.8075 25.6562C8.41272 21.5865 9.64502 17.5027 12.2123 14.2558C12.4586 13.9626 12.7123 13.6761 12.9758 13.3985C13.385 12.9656 13.7402 12.5479 13.7964 11.9433C13.751 11.3942 13.6489 11.2029 13.2695 10.8168Z" fill="#FAFAFA"/>
<path d="M32.347 14.8217C32.1997 14.6722 32.0527 14.5225 31.9053 14.3729C31.5085 13.97 31.1107 13.5684 30.7125 13.1672C30.4636 12.9161 30.2143 12.6648 29.9657 12.4134C29.2755 11.7155 28.5843 11.0179 27.8923 10.3217C27.8263 10.2551 27.8263 10.2551 27.7587 10.1874C27.6692 10.0976 27.5803 10.0077 27.491 9.91791C27.4243 9.85101 27.4243 9.85101 27.3567 9.78284C27.29 9.71588 27.29 9.71588 27.222 9.64758C26.5013 8.92236 25.7827 8.19482 25.0649 7.46637C24.3258 6.71619 23.5847 5.96777 22.8423 5.22119C22.4261 4.80267 22.011 4.38361 21.597 3.96265C21.2091 3.56744 20.8185 3.17456 20.4265 2.78339C20.2832 2.63959 20.1402 2.495 19.9984 2.34955C19.8048 2.15088 19.6084 1.95532 19.4108 1.76025C19.3555 1.70233 19.3004 1.64435 19.2436 1.58459C18.842 1.19696 18.5232 1.11993 17.9661 1.11084C17.598 1.13574 17.2703 1.22571 16.922 1.34857C16.8118 1.38562 16.8118 1.38562 16.6992 1.4234C12.2652 2.94971 12.2652 2.94971 11.2318 4.23187C11.0038 4.71887 10.991 5.12231 11.1556 5.62836C11.3497 5.83789 11.5474 6.04187 11.7489 6.24445C11.8435 6.34027 11.8435 6.34027 11.9402 6.43805C12.1529 6.65332 12.3661 6.86829 12.5796 7.08319C12.7314 7.23688 12.8837 7.39081 13.0356 7.54462C13.3639 7.87665 13.6923 8.20856 14.0212 8.54028C14.4972 9.02075 14.9728 9.50183 15.4481 9.98303C16.2207 10.7649 16.9938 11.5465 17.767 12.328C17.8131 12.3748 17.8589 12.4216 17.9073 12.4698C18.5626 13.1326 19.2184 13.7951 19.8744 14.4576C19.9436 14.5275 19.9436 14.5275 20.0142 14.5988C20.0831 14.6685 20.0831 14.6685 20.1536 14.7396C20.9233 15.517 21.6919 16.2948 22.4607 17.0729C22.9762 17.595 23.4927 18.1166 24.0091 18.6376C24.3318 18.963 24.6533 19.2888 24.9753 19.6149C25.1236 19.7654 25.2731 19.9156 25.422 20.0657C27.2773 21.9226 27.2773 21.9226 27.8938 24.4396C27.8188 25.6481 27.2797 26.5253 26.5236 27.434C26.2612 27.8301 26.1681 28.1703 26.2319 28.6404C26.3484 28.9833 26.5107 29.1541 26.7638 29.4104C26.8314 29.4797 26.8314 29.4797 26.9001 29.5505C27.0487 29.7022 27.1984 29.8525 27.3489 30.0027C27.4531 30.1082 27.5572 30.2136 27.6614 30.3192C27.8799 30.5398 28.0987 30.7596 28.3179 30.9791C28.5991 31.2598 28.8777 31.5425 29.1555 31.8259C29.3699 32.0443 29.5859 32.2612 29.8019 32.4778C29.9054 32.5815 30.0079 32.6857 30.1103 32.7903C30.2543 32.9365 30.3992 33.0811 30.5448 33.2252C30.6271 33.3078 30.7092 33.3903 30.7934 33.4753C31.1634 33.7511 31.5152 33.81 31.9737 33.7767C32.3779 33.5989 32.6437 33.3133 32.9488 32.9973C33.0135 32.9307 33.0785 32.8643 33.1451 32.7958C35.3352 30.4981 36.3611 27.5096 36.4741 24.3881C36.4788 24.2944 36.4838 24.2006 36.4888 24.104C36.5549 22.1823 36.0391 20.2846 35.2143 18.5768C35.1809 18.5069 35.1475 18.437 35.1129 18.3649C34.4119 16.9836 33.427 15.9074 32.347 14.8217Z" fill="#FAFAFA"/>
<path d="M21.3767 18.9566C21.3319 18.9103 21.2865 18.8641 21.24 18.8164C21.0919 18.6646 20.9415 18.5143 20.7917 18.3642C20.6875 18.2587 20.5833 18.1532 20.4786 18.0477C20.2608 17.827 20.0418 17.6071 19.822 17.3878C19.5413 17.1071 19.2633 16.8243 18.9848 16.5407C18.7703 16.3224 18.5549 16.1055 18.3382 15.8888C18.2351 15.7851 18.1323 15.6809 18.03 15.5763C17.8866 15.4299 17.7415 15.2855 17.596 15.1414C17.4727 15.0175 17.4727 15.0175 17.3466 14.8912C16.9737 14.6185 16.6135 14.5688 16.1394 14.6177C15.7168 14.8135 15.4338 15.1166 15.1092 15.452C15.0063 15.5579 15.0063 15.5579 14.901 15.6659C12.5706 18.1042 11.4199 21.2183 11.2067 24.4409C11.1987 24.5377 11.1909 24.6346 11.1827 24.7344C11.0545 26.7182 11.5278 28.659 12.3249 30.3942C12.3574 30.4653 12.3899 30.5364 12.4233 30.6096C13.1031 32.012 14.085 33.0909 15.1651 34.1765C15.3123 34.3262 15.4597 34.4759 15.6069 34.6257C16.0033 35.0286 16.4012 35.4302 16.7992 35.8315C17.0483 36.0826 17.2973 36.3339 17.5459 36.5854C18.2363 37.2833 18.9272 37.9811 19.6191 38.6773C19.6853 38.7438 19.6853 38.7438 19.7528 38.8117C19.8421 38.9015 19.9312 38.9913 20.0208 39.0811C20.0871 39.1479 20.0871 39.1479 20.155 39.2162C20.2214 39.2831 20.2214 39.2831 20.2894 39.3514C21.0102 40.0767 21.7285 40.8043 22.4461 41.533C23.185 42.2834 23.9261 43.0319 24.6687 43.7786C25.0847 44.197 25.4998 44.6161 25.9134 45.0373C26.3016 45.4326 26.6922 45.8254 27.0841 46.2166C27.2274 46.3603 27.3704 46.505 27.5119 46.6506C27.7053 46.8493 27.9019 47.0448 28.0997 47.2397C28.1549 47.2978 28.2098 47.3559 28.2668 47.4156C28.6684 47.8029 28.9948 47.8722 29.5689 47.8641C29.9503 47.8268 30.2909 47.7238 30.6534 47.5861C30.7302 47.5583 30.8065 47.5306 30.8851 47.5019C35.5052 45.7887 35.5052 45.7887 36.611 44.434C36.8613 43.9246 36.887 43.5081 36.733 42.9914C36.5391 42.7814 36.3418 42.5773 36.1402 42.3748C36.077 42.3109 36.014 42.2469 35.9491 42.1811C35.7363 41.9657 35.5234 41.7507 35.3101 41.5359C35.1579 41.3821 35.0062 41.2283 34.8537 41.0743C34.5255 40.7422 34.1971 40.4103 33.8685 40.0786C33.3924 39.598 32.9171 39.1169 32.4414 38.6356C31.669 37.8536 30.8962 37.0717 30.1237 36.2902C30.0771 36.2433 30.0311 36.1965 29.9835 36.1483C29.3276 35.4853 28.6722 34.8228 28.0164 34.1602C27.9701 34.1136 27.9244 34.067 27.8764 34.019C27.8075 33.9493 27.8075 33.9493 27.7369 33.8782C26.9679 33.1007 26.1988 32.3228 25.4303 31.5444C24.9146 31.0222 24.3985 30.5006 23.8819 29.9795C23.5595 29.654 23.2379 29.3282 22.9162 29.002C22.7677 28.8516 22.6189 28.7012 22.4696 28.5511C20.6137 26.6945 20.6137 26.6945 20.0565 24.1182C20.1713 22.8697 20.7553 21.948 21.5627 20.9872C21.8458 20.5705 21.9521 20.2167 21.9006 19.7339C21.7911 19.384 21.6291 19.2131 21.3767 18.9566Z" fill="#FAFAFA"/>
</g>
<defs>

</defs>
</svg>
